<svg xmlns="http://www.w3.org/2000/svg" xmlns:xlink="http://www.w3.org/1999/xlink" version="1.1" width="343px" height="253px" viewBox="-0.5 -0.5 343 253">
    <title>Forking and cloning a Git repository</title>
    <defs/>
    <g>
        <path d="M 131 46 L 196.53 46" fill="none" stroke="currentColor" stroke-width="4" stroke-miterlimit="10" pointer-events="stroke"/>
        <path d="M 206.53 46 L 196.53 51 L 196.53 41 Z" fill="currentColor" stroke="currentColor" stroke-width="4" stroke-miterlimit="10" pointer-events="all"/>
        <path d="M 1 76 L 1 16 C 1 7.72 30.1 1 66 1 C 101.9 1 131 7.72 131 16 L 131 76 C 131 84.28 101.9 91 66 91 C 30.1 91 1 84.28 1 76 Z" fill="#d9bfd9" stroke="#b380b3" stroke-width="3" stroke-miterlimit="10" pointer-events="all" style="fill: light-dark(#d9bfd9, #5c3d5c); stroke: light-dark(#b380b3, #d9a8d9);"/>
        <path d="M 1 16 C 1 24.28 30.1 31 66 31 C 101.9 31 131 24.28 131 16" fill="none" stroke="#b380b3" stroke-width="3" stroke-miterlimit="10" pointer-events="all" style="stroke: light-dark(#b380b3, #d9a8d9);"/>
        <g transform="translate(-0.5 -0.5)">
            <text x="66" y="61" fill="currentColor" font-family="inherit" font-size="18px" text-anchor="middle">reference</text>
        </g>
        <path d="M 276 91 L 276 146.53" fill="none" stroke="currentColor" stroke-width="4" stroke-miterlimit="10" pointer-events="stroke"/>
        <path d="M 276 156.53 L 271 146.53 L 281 146.53 Z" fill="currentColor" stroke="currentColor" stroke-width="4" stroke-miterlimit="10" pointer-events="all"/>
        <path d="M 211 76 L 211 16 C 211 7.72 240.1 1 276 1 C 311.9 1 341 7.72 341 16 L 341 76 C 341 84.28 311.9 91 276 91 C 240.1 91 211 84.28 211 76 Z" fill="#f7bf97" stroke="#f08b42" stroke-width="3" stroke-miterlimit="10" pointer-events="all" style="fill: light-dark(#f7bf97, #7a4f21); stroke: light-dark(#f08b42, #ffb066);"/>
        <path d="M 211 16 C 211 24.28 240.1 31 276 31 C 311.9 31 341 24.28 341 16" fill="none" stroke="#f08b42" stroke-width="3" stroke-miterlimit="10" pointer-events="all" style="stroke: light-dark(#f08b42, #ffb066);"/>
        <g transform="translate(-0.5 -0.5)">
            <text x="276" y="61" fill="currentColor" font-family="inherit" font-size="18px" text-anchor="middle">fork</text>
        </g>
        <path d="M 211 236 L 211 176 C 211 167.72 240.1 161 276 161 C 311.9 161 341 167.72 341 176 L 341 236 C 341 244.28 311.9 251 276 251 C 240.1 251 211 244.28 211 236 Z" fill="#c9db70" stroke="#a1b82e" stroke-width="3" stroke-miterlimit="10" pointer-events="all" style="fill: light-dark(#c9db70, #5a6b1f); stroke: light-dark(#a1b82e, #cfe066);"/>
        <path d="M 211 176 C 211 184.28 240.1 191 276 191 C 311.9 191 341 184.28 341 176" fill="none" stroke="#a1b82e" stroke-width="3" stroke-miterlimit="10" pointer-events="all" style="stroke: light-dark(#a1b82e, #cfe066);"/>
        <g transform="translate(-0.5 -0.5)">
            <text x="276" y="221" fill="currentColor" font-family="inherit" font-size="18px" text-anchor="middle">local</text>
        </g>
        <rect x="281" y="121" width="40" height="20" fill="none" stroke="none" pointer-events="all"/>
        <g transform="translate(-0.5 -0.5)">
            <text x="283" y="136" fill="currentColor" font-family="inherit" font-size="18px" text-anchor="start">clone</text>
        </g>
        <rect x="151" y="51" width="40" height="20" fill="none" stroke="none" pointer-events="all"/>
        <g transform="translate(-0.5 -0.5)">
            <text x="189" y="66" fill="currentColor" font-family="inherit" font-size="18px" text-anchor="end">clone</text>
        </g>
    </g>
</svg>
