<svg xmlns="http://www.w3.org/2000/svg" xmlns:xlink="http://www.w3.org/1999/xlink" version="1.1" width="605px" height="253px" viewBox="-0.5 -0.5 605 253">
    <title>Two related Git repositories, showing commits exchanged between them</title>
    <defs/>
    <g>
        <path d="M 2 121 L 602 121" fill="none" stroke="currentColor" stroke-width="4" stroke-miterlimit="10" stroke-dasharray="4 4" pointer-events="stroke"/>
        <path d="M 197 91 L 197 146.53" fill="none" stroke="currentColor" stroke-width="4" stroke-miterlimit="10" pointer-events="stroke"/>
        <path d="M 197 156.53 L 192 146.53 L 202 146.53 Z" fill="currentColor" stroke="currentColor" stroke-width="4" stroke-miterlimit="10" pointer-events="all"/>
        <path d="M 262 46 L 327.53 46" fill="none" stroke="currentColor" stroke-width="4" stroke-miterlimit="10" pointer-events="stroke"/>
        <path d="M 337.53 46 L 327.53 51 L 327.53 41 Z" fill="currentColor" stroke="currentColor" stroke-width="4" stroke-miterlimit="10" pointer-events="all"/>
        <path d="M 132 76 L 132 16 C 132 7.72 161.1 1 197 1 C 232.9 1 262 7.72 262 16 L 262 76 C 262 84.28 232.9 91 197 91 C 161.1 91 132 84.28 132 76 Z" fill="#d9bfd9" stroke="#b380b3" stroke-width="3" stroke-miterlimit="10" pointer-events="all" style="fill: light-dark(#d9bfd9, #5c3d5c); stroke: light-dark(#b380b3, #d9a8d9);"/>
        <path d="M 132 16 C 132 24.28 161.1 31 197 31 C 232.9 31 262 24.28 262 16" fill="none" stroke="#b380b3" stroke-width="3" stroke-miterlimit="10" pointer-events="all" style="stroke: light-dark(#b380b3, #d9a8d9);"/>
        <g transform="translate(-0.5 -0.5)">
            <text x="197" y="61" fill="currentColor" font-family="inherit" font-size="18px" text-anchor="middle">reference</text>
        </g>
        <path d="M 132 236 L 132 176 C 132 167.72 161.1 161 197 161 C 232.9 161 262 167.72 262 176 L 262 236 C 262 244.28 232.9 251 197 251 C 161.1 251 132 244.28 132 236 Z" fill="#c9db70" stroke="#a1b82e" stroke-width="3" stroke-miterlimit="10" pointer-events="all" style="fill: light-dark(#c9db70, #5a6b1f); stroke: light-dark(#a1b82e, #cfe066);"/>
        <path d="M 132 176 C 132 184.28 161.1 191 197 191 C 232.9 191 262 184.28 262 176" fill="none" stroke="#a1b82e" stroke-width="3" stroke-miterlimit="10" pointer-events="all" style="stroke: light-dark(#a1b82e, #cfe066);"/>
        <g transform="translate(-0.5 -0.5)">
            <text x="197" y="221" fill="currentColor" font-family="inherit" font-size="18px" text-anchor="middle">local</text>
        </g>
        <path d="M 407 91 L 407 146.53" fill="none" stroke="currentColor" stroke-width="4" stroke-miterlimit="10" pointer-events="stroke"/>
        <path d="M 407 156.53 L 402 146.53 L 412 146.53 Z" fill="currentColor" stroke="currentColor" stroke-width="4" stroke-miterlimit="10" pointer-events="all"/>
        <path d="M 342 76 L 342 16 C 342 7.72 371.1 1 407 1 C 442.9 1 472 7.72 472 16 L 472 76 C 472 84.28 442.9 91 407 91 C 371.1 91 342 84.28 342 76 Z" fill="#f7bf97" stroke="#f08b42" stroke-width="3" stroke-miterlimit="10" pointer-events="all" style="fill: light-dark(#f7bf97, #7a4f21); stroke: light-dark(#f08b42, #ffb066);"/>
        <path d="M 342 16 C 342 24.28 371.1 31 407 31 C 442.9 31 472 24.28 472 16" fill="none" stroke="#f08b42" stroke-width="3" stroke-miterlimit="10" pointer-events="all" style="stroke: light-dark(#f08b42, #ffb066);"/>
        <g transform="translate(-0.5 -0.5)">
            <text x="407" y="61" fill="currentColor" font-family="inherit" font-size="18px" text-anchor="middle">fork</text>
        </g>
        <path d="M 342 236 L 342 176 C 342 167.72 371.1 161 407 161 C 442.9 161 472 167.72 472 176 L 472 236 C 472 244.28 442.9 251 407 251 C 371.1 251 342 244.28 342 236 Z" fill="#c9db70" stroke="#a1b82e" stroke-width="3" stroke-miterlimit="10" pointer-events="all" style="fill: light-dark(#c9db70, #5a6b1f); stroke: light-dark(#a1b82e, #cfe066);"/>
        <path d="M 342 176 C 342 184.28 371.1 191 407 191 C 442.9 191 472 184.28 472 176" fill="none" stroke="#a1b82e" stroke-width="3" stroke-miterlimit="10" pointer-events="all" style="stroke: light-dark(#a1b82e, #cfe066);"/>
        <g transform="translate(-0.5 -0.5)">
            <text x="407" y="221" fill="currentColor" font-family="inherit" font-size="18px" text-anchor="middle">local</text>
        </g>
        <rect x="562" y="36" width="40" height="20" fill="none" stroke="none" pointer-events="all"/>
        <g transform="translate(-0.5 -0.5)">
            <text x="600" y="61" fill="currentColor" font-family="inherit" font-size="18px" text-anchor="end">upstream</text>
        </g>
        <rect x="562" y="196" width="40" height="20" fill="none" stroke="none" pointer-events="all"/>
        <g transform="translate(-0.5 -0.5)">
            <text x="600" y="221" fill="currentColor" font-family="inherit" font-size="18px" text-anchor="end">downstream</text>
        </g>
    </g>
</svg>
