<svg xmlns="http://www.w3.org/2000/svg" xmlns:xlink="http://www.w3.org/1999/xlink" version="1.1" width="431px" height="541px" viewBox="-0.5 -0.5 431 541">
  <defs/>
  <g>
    <path d="M 0 30 L 0 0 L 110 0 L 110 30 M 0 30 L 430 30 L 430 540 L 0 540 Z" fill="var(--base-page, #ffffff)" stroke="currentColor" stroke-miterlimit="10" pointer-events="all"/>
    <g transform="translate(-0.5 -0.5)">
      <text x="55" y="19" fill="currentColor" font-family="inherit" font-size="14px" text-anchor="middle" font-weight="bold">Application</text>
    </g>
    <rect x="0" y="30" width="430" height="378" fill="none" stroke="none" pointer-events="all"/>
    <rect x="310" y="50" width="90" height="280" fill="currentColor" fill-opacity="0.05" stroke="currentColor" stroke-opacity="0.4" stroke-width="2" pointer-events="all"/>
    <path d="M 320 140 L 390 140" fill="none" stroke="currentColor" stroke-width="2" stroke-miterlimit="10" stroke-dasharray="2 6" pointer-events="stroke"/>
    <path d="M 320 240 L 390 240" fill="none" stroke="currentColor" stroke-width="2" stroke-miterlimit="10" stroke-dasharray="2 6" pointer-events="stroke"/>
    <rect x="110" y="50" width="90" height="280" fill="currentColor" fill-opacity="0.05" stroke="currentColor" stroke-opacity="0.4" stroke-width="2" pointer-events="all"/>
    <rect x="210" y="50" width="90" height="280" fill="currentColor" fill-opacity="0.05" stroke="currentColor" stroke-opacity="0.4" stroke-width="2" pointer-events="all"/>
    <path d="M 20 350 L 420 350" fill="none" stroke="currentColor" stroke-width="2" stroke-miterlimit="10" stroke-dasharray="2 6" pointer-events="stroke"/>
    <path d="M 20 450 L 420 450" fill="none" stroke="currentColor" stroke-width="2" stroke-miterlimit="10" stroke-dasharray="2 6" pointer-events="stroke"/>
    <rect x="20" y="50" width="60" height="30" fill="none" stroke="none" pointer-events="all"/>
    <g transform="translate(-0.5 -0.5)">
      <text x="22" y="69" fill="currentColor" font-family="inherit" font-size="14px" text-anchor="start" font-weight="bold">Modules</text>
    </g>
    <rect x="20" y="360" width="60" height="30" fill="none" stroke="none" pointer-events="all"/>
    <g transform="translate(-0.5 -0.5)">
      <text x="22" y="379" fill="currentColor" font-family="inherit" font-size="14px" text-anchor="start" font-weight="bold">System</text>
    </g>
    <rect x="20" y="460" width="60" height="30" fill="none" stroke="none" pointer-events="all"/>
    <g transform="translate(-0.5 -0.5)">
      <text x="22" y="479" fill="currentColor" font-family="inherit" font-size="14px" text-anchor="start" font-weight="bold">Vendors</text>
    </g>
    <path d="M 142.5 110 L 137.95 173.65" fill="none" stroke="currentColor" stroke-miterlimit="10" pointer-events="stroke"/>
    <path d="M 137.58 178.88 L 134.59 171.65 L 137.95 173.65 L 141.57 172.15 Z" fill="currentColor" stroke="currentColor" stroke-miterlimit="10" pointer-events="all"/>
    <rect x="130" y="80" width="50" height="30" fill="var(--base-page, #ffffff)" stroke="currentColor" stroke-width="2" pointer-events="all"/>
    <rect x="330" y="80" width="30" height="30" fill="var(--base-page, #ffffff)" stroke="currentColor" stroke-width="2" pointer-events="all"/>
    <rect x="130" y="180" width="30" height="30" fill="var(--base-page, #ffffff)" stroke="currentColor" stroke-width="2" pointer-events="all"/>
    <rect x="230" y="190" width="30" height="30" fill="var(--base-page, #ffffff)" stroke="currentColor" stroke-width="2" pointer-events="all"/>
    <path d="M 270 210 L 270 273.63" fill="none" stroke="currentColor" stroke-miterlimit="10" pointer-events="stroke"/>
    <path d="M 270 278.88 L 266.5 271.88 L 270 273.63 L 273.5 271.88 Z" fill="currentColor" stroke="currentColor" stroke-miterlimit="10" pointer-events="all"/>
    <rect x="240" y="180" width="40" height="30" fill="var(--base-page, #ffffff)" stroke="currentColor" stroke-width="2" pointer-events="all"/>
    <path d="M 367.5 220 L 369.77 283.64" fill="none" stroke="currentColor" stroke-miterlimit="10" pointer-events="stroke"/>
    <path d="M 369.96 288.88 L 366.21 282.01 L 369.77 283.64 L 373.21 281.76 Z" fill="currentColor" stroke="currentColor" stroke-miterlimit="10" pointer-events="all"/>
    <rect x="330" y="190" width="50" height="30" fill="var(--base-page, #ffffff)" stroke="currentColor" stroke-width="2" pointer-events="all"/>
    <rect x="240" y="280" width="40" height="30" fill="var(--base-page, #ffffff)" stroke="currentColor" stroke-width="2" pointer-events="all"/>
    <path d="M 260.77 320 L 233.34 364.58" fill="none" stroke="currentColor" stroke-miterlimit="10" pointer-events="stroke"/>
    <path d="M 230.59 369.05 L 231.27 361.25 L 233.34 364.58 L 237.24 364.92 Z" fill="currentColor" stroke="currentColor" stroke-miterlimit="10" pointer-events="all"/>
    <path d="M 274.62 320 L 288.13 363.91" fill="none" stroke="currentColor" stroke-miterlimit="10" pointer-events="stroke"/>
    <path d="M 289.67 368.93 L 284.27 363.27 L 288.13 363.91 L 290.96 361.21 Z" fill="currentColor" stroke="currentColor" stroke-miterlimit="10" pointer-events="all"/>
    <rect x="250" y="290" width="40" height="30" fill="var(--base-page, #ffffff)" stroke="currentColor" stroke-width="2" pointer-events="all"/>
    <rect x="330" y="280" width="30" height="30" fill="var(--base-page, #ffffff)" stroke="currentColor" stroke-width="2" pointer-events="all"/>
    <path d="M 362.51 320 L 340 365.11" fill="none" stroke="currentColor" stroke-miterlimit="10" pointer-events="stroke"/>
    <path d="M 337.66 369.81 L 337.65 361.98 L 340 365.11 L 343.92 365.11 Z" fill="currentColor" stroke="currentColor" stroke-miterlimit="10" pointer-events="all"/>
    <rect x="350" y="290" width="40" height="30" fill="var(--base-page, #ffffff)" stroke="currentColor" stroke-width="2" pointer-events="all"/>
    <rect x="130" y="370" width="60" height="30" fill="var(--base-page, #ffffff)" stroke="currentColor" stroke-width="2" pointer-events="all"/>
    <path d="M 155.91 430 L 146.68 463.86" fill="none" stroke="currentColor" stroke-miterlimit="10" pointer-events="stroke"/>
    <path d="M 145.29 468.92 L 143.76 461.25 L 146.68 463.86 L 150.51 463.09 Z" fill="currentColor" stroke="currentColor" stroke-miterlimit="10" pointer-events="all"/>
    <rect x="140" y="400" width="40" height="30" fill="var(--base-page, #ffffff)" stroke="currentColor" stroke-width="2" pointer-events="all"/>
    <rect x="210" y="370" width="40" height="30" fill="var(--base-page, #ffffff)" stroke="currentColor" stroke-width="2" pointer-events="all"/>
    <path d="M 230.23 430 L 253.91 464.74" fill="none" stroke="currentColor" stroke-miterlimit="10" pointer-events="stroke"/>
    <path d="M 256.87 469.08 L 250.04 465.26 L 253.91 464.74 L 255.82 461.32 Z" fill="currentColor" stroke="currentColor" stroke-miterlimit="10" pointer-events="all"/>
    <rect x="200" y="400" width="40" height="30" fill="var(--base-page, #ffffff)" stroke="currentColor" stroke-width="2" pointer-events="all"/>
    <rect x="260" y="370" width="40" height="30" fill="var(--base-page, #ffffff)" stroke="currentColor" stroke-width="2" pointer-events="all"/>
    <path d="M 292.5 430 L 275.35 464.3" fill="none" stroke="currentColor" stroke-miterlimit="10" pointer-events="stroke"/>
    <path d="M 273 469 L 273 461.17 L 275.35 464.3 L 279.26 464.3 Z" fill="currentColor" stroke="currentColor" stroke-miterlimit="10" pointer-events="all"/>
    <rect x="270" y="400" width="60" height="30" fill="var(--base-page, #ffffff)" stroke="currentColor" stroke-width="2" pointer-events="all"/>
    <rect x="310" y="370" width="70" height="30" fill="var(--base-page, #ffffff)" stroke="currentColor" stroke-width="2" pointer-events="all"/>
    <path d="M 352.27 430 L 346.14 463.73" fill="none" stroke="currentColor" stroke-miterlimit="10" pointer-events="stroke"/>
    <path d="M 345.2 468.9 L 343.01 461.39 L 346.14 463.73 L 349.9 462.64 Z" fill="currentColor" stroke="currentColor" stroke-miterlimit="10" pointer-events="all"/>
    <rect x="340" y="400" width="30" height="30" fill="var(--base-page, #ffffff)" stroke="currentColor" stroke-width="2" pointer-events="all"/>
    <rect x="130" y="470" width="30" height="30" fill="var(--base-page, #ffffff)" stroke="currentColor" stroke-width="2" pointer-events="all"/>
    <rect x="170" y="470" width="30" height="30" fill="var(--base-page, #ffffff)" stroke="currentColor" stroke-width="2" pointer-events="all"/>
    <rect x="210" y="470" width="30" height="30" fill="var(--base-page, #ffffff)" stroke="currentColor" stroke-width="2" pointer-events="all"/>
    <rect x="250" y="470" width="30" height="30" fill="var(--base-page, #ffffff)" stroke="currentColor" stroke-width="2" pointer-events="all"/>
    <rect x="290" y="470" width="30" height="30" fill="var(--base-page, #ffffff)" stroke="currentColor" stroke-width="2" pointer-events="all"/>
    <rect x="150" y="490" width="30" height="30" fill="var(--base-page, #ffffff)" stroke="currentColor" stroke-width="2" pointer-events="all"/>
    <rect x="190" y="490" width="30" height="30" fill="var(--base-page, #ffffff)" stroke="currentColor" stroke-width="2" pointer-events="all"/>
    <rect x="230" y="490" width="30" height="30" fill="var(--base-page, #ffffff)" stroke="currentColor" stroke-width="2" pointer-events="all"/>
    <rect x="270" y="490" width="30" height="30" fill="var(--base-page, #ffffff)" stroke="currentColor" stroke-width="2" pointer-events="all"/>
    <rect x="330" y="470" width="30" height="30" fill="var(--base-page, #ffffff)" stroke="currentColor" stroke-width="2" pointer-events="all"/>
    <rect x="350" y="490" width="30" height="30" fill="var(--base-page, #ffffff)" stroke="currentColor" stroke-width="2" pointer-events="all"/>
    <rect x="310" y="490" width="30" height="30" fill="var(--base-page, #ffffff)" stroke="currentColor" stroke-width="2" pointer-events="all"/>
    <rect x="320" y="50" width="60" height="30" fill="none" stroke="none" pointer-events="all"/>
    <g transform="translate(-0.5 -0.5)">
      <text x="322" y="69" fill="currentColor" font-family="inherit" font-size="14px" text-anchor="start" font-weight="bold">I/O</text>
    </g>
    <rect x="320" y="140" width="60" height="30" fill="none" stroke="none" pointer-events="all"/>
    <g transform="translate(-0.5 -0.5)">
      <text x="322" y="159" fill="currentColor" font-family="inherit" font-size="14px" text-anchor="start" font-weight="bold">Kernel</text>
    </g>
    <rect x="320" y="240" width="60" height="30" fill="none" stroke="none" pointer-events="all"/>
    <g transform="translate(-0.5 -0.5)">
      <text x="322" y="259" fill="currentColor" font-family="inherit" font-size="14px" text-anchor="start" font-weight="bold">Model</text>
    </g>
    <path d="M 220 140 L 290 140" fill="none" stroke="currentColor" stroke-width="2" stroke-miterlimit="10" stroke-dasharray="2 6" pointer-events="stroke"/>
    <path d="M 220 240 L 290 240" fill="none" stroke="currentColor" stroke-width="2" stroke-miterlimit="10" stroke-dasharray="2 6" pointer-events="stroke"/>
    <rect x="220" y="50" width="60" height="30" fill="none" stroke="none" pointer-events="all"/>
    <g transform="translate(-0.5 -0.5)">
      <text x="222" y="69" fill="currentColor" font-family="inherit" font-size="14px" text-anchor="start" font-weight="bold">I/O</text>
    </g>
    <rect x="220" y="140" width="60" height="30" fill="none" stroke="none" pointer-events="all"/>
    <g transform="translate(-0.5 -0.5)">
      <text x="222" y="159" fill="currentColor" font-family="inherit" font-size="14px" text-anchor="start" font-weight="bold">Kernel</text>
    </g>
    <rect x="220" y="240" width="60" height="30" fill="none" stroke="none" pointer-events="all"/>
    <g transform="translate(-0.5 -0.5)">
      <text x="222" y="259" fill="currentColor" font-family="inherit" font-size="14px" text-anchor="start" font-weight="bold">Model</text>
    </g>
    <path d="M 120 140 L 190 140" fill="none" stroke="currentColor" stroke-width="2" stroke-miterlimit="10" stroke-dasharray="2 6" pointer-events="stroke"/>
    <path d="M 120 240 L 190 240" fill="none" stroke="currentColor" stroke-width="2" stroke-miterlimit="10" stroke-dasharray="2 6" pointer-events="stroke"/>
    <rect x="120" y="50" width="60" height="30" fill="none" stroke="none" pointer-events="all"/>
    <g transform="translate(-0.5 -0.5)">
      <text x="122" y="69" fill="currentColor" font-family="inherit" font-size="14px" text-anchor="start" font-weight="bold">I/O</text>
    </g>
    <rect x="120" y="140" width="70" height="30" fill="none" stroke="none" pointer-events="all"/>
    <g transform="translate(-0.5 -0.5)">
      <text x="188" y="159" fill="currentColor" font-family="inherit" font-size="14px" text-anchor="end" font-weight="bold">Kernel</text>
    </g>
    <rect x="120" y="240" width="60" height="30" fill="none" stroke="none" pointer-events="all"/>
    <g transform="translate(-0.5 -0.5)">
      <text x="122" y="259" fill="currentColor" font-family="inherit" font-size="14px" text-anchor="start" font-weight="bold">Model</text>
    </g>
    <rect x="140" y="190" width="30" height="30" fill="var(--base-page, #ffffff)" stroke="currentColor" stroke-width="2" pointer-events="all"/>
    <path d="M 166.73 230 L 171.77 273.67" fill="none" stroke="currentColor" stroke-miterlimit="10" pointer-events="stroke"/>
    <path d="M 172.37 278.89 L 168.09 272.34 L 171.77 273.67 L 175.05 271.53 Z" fill="currentColor" stroke="currentColor" stroke-miterlimit="10" pointer-events="all"/>
    <rect x="150" y="200" width="30" height="30" fill="var(--base-page, #ffffff)" stroke="currentColor" stroke-width="2" pointer-events="all"/>
    <rect x="130" y="280" width="30" height="30" fill="var(--base-page, #ffffff)" stroke="currentColor" stroke-width="2" pointer-events="all"/>
    <rect x="150" y="280" width="30" height="30" fill="var(--base-page, #ffffff)" stroke="currentColor" stroke-width="2" pointer-events="all"/>
    <path d="M 155.94 320 L 158.67 363.64" fill="none" stroke="currentColor" stroke-miterlimit="10" pointer-events="stroke"/>
    <path d="M 158.99 368.88 L 155.06 362.12 L 158.67 363.64 L 162.05 361.68 Z" fill="currentColor" stroke="currentColor" stroke-miterlimit="10" pointer-events="all"/>
    <path d="M 170 320 L 215.5 365.5" fill="none" stroke="currentColor" stroke-miterlimit="10" pointer-events="stroke"/>
    <path d="M 219.21 369.21 L 211.78 366.73 L 215.5 365.5 L 216.73 361.78 Z" fill="currentColor" stroke="currentColor" stroke-miterlimit="10" pointer-events="all"/>
    <rect x="140" y="290" width="30" height="30" fill="var(--base-page, #ffffff)" stroke="currentColor" stroke-width="2" pointer-events="all"/>
    <path d="M 372.5 130 L 368.03 183.65" fill="none" stroke="currentColor" stroke-miterlimit="10" pointer-events="stroke"/>
    <path d="M 367.59 188.89 L 364.69 181.62 L 368.03 183.65 L 371.66 182.2 Z" fill="currentColor" stroke="currentColor" stroke-miterlimit="10" pointer-events="all"/>
    <rect x="335" y="100" width="50" height="30" fill="var(--base-page, #ffffff)" stroke="currentColor" stroke-width="2" pointer-events="all"/>
    <rect x="220" y="80" width="30" height="30" fill="var(--base-page, #ffffff)" stroke="currentColor" stroke-width="2" pointer-events="all"/>
    <rect x="230" y="90" width="30" height="30" fill="var(--base-page, #ffffff)" stroke="currentColor" stroke-width="2" pointer-events="all"/>
    <path d="M 270 130 L 270 173.63" fill="none" stroke="currentColor" stroke-miterlimit="10" pointer-events="stroke"/>
    <path d="M 270 178.88 L 266.5 171.88 L 270 173.63 L 273.5 171.88 Z" fill="currentColor" stroke="currentColor" stroke-miterlimit="10" pointer-events="all"/>
    <rect x="240" y="100" width="40" height="30" fill="var(--base-page, #ffffff)" stroke="currentColor" stroke-width="2" pointer-events="all"/>
  </g>
</svg>
